{
	"asset":{
		"generator":"Khronos glTF Blender I/O v4.1.63",
		"version":"2.0"
	},
	"scene":0,
	"scenes":[
		{
			"name":"Scene",
			"nodes":[
				0
			]
		}
	],
	"nodes":[
		{
			"mesh":0,
			"name":"Cube",
			"rotation":[
				0,
				-1,
				0,
				8.742277657347586e-08
			],
			"translation":[
				0.17037692666053772,
				1.1385610103607178,
				-0.007487204857170582
			]
		}
	],
	"animations":[
		{
			"channels":[
				{
					"sampler":0,
					"target":{
						"node":0,
						"path":"translation"
					}
				},
				{
					"sampler":1,
					"target":{
						"node":0,
						"path":"rotation"
					}
				}
			],
			"name":"CubeAction.001",
			"samplers":[
				{
					"input":12,
					"interpolation":"STEP",
					"output":13
				},
				{
					"input":14,
					"interpolation":"LINEAR",
					"output":15
				}
			]
		}
	],
	"materials":[
		{
			"doubleSided":true,
			"name":"Pages",
			"pbrMetallicRoughness":{
				"baseColorTexture":{
					"index":0
				},
				"metallicFactor":0
			}
		},
		{
			"doubleSided":true,
			"name":"Cover.001",
			"pbrMetallicRoughness":{
				"baseColorFactor":[
					0.056386563926935196,
					0.054862912744283676,
					0.12350878119468689,
					1
				],
				"metallicFactor":0,
				"roughnessFactor":0.5
			}
		},
		{
			"doubleSided":true,
			"name":"FrontCover",
			"pbrMetallicRoughness":{
				"baseColorFactor":[
					0.04134375974535942,
					0.045481324195861816,
					0.1393675059080124,
					1
				],
				"metallicFactor":0,
				"roughnessFactor":0.5
			}
		}
	],
	"meshes":[
		{
			"name":"Cube",
			"primitives":[
				{
					"attributes":{
						"POSITION":0,
						"NORMAL":1,
						"TEXCOORD_0":2
					},
					"indices":3,
					"material":0
				},
				{
					"attributes":{
						"POSITION":4,
						"NORMAL":5,
						"TEXCOORD_0":6
					},
					"indices":7,
					"material":1
				},
				{
					"attributes":{
						"POSITION":8,
						"NORMAL":9,
						"TEXCOORD_0":10
					},
					"indices":11,
					"material":2
				}
			]
		}
	],
	"textures":[
		{
			"sampler":0,
			"source":0
		}
	],
	"images":[
		{
			"mimeType":"image/png",
			"name":"pages texture",
			"uri":"pages%20texture.png"
		}
	],
	"accessors":[
		{
			"bufferView":0,
			"componentType":5126,
			"count":32,
			"max":[
				0.19380059838294983,
				1.0242563486099243,
				0.752463161945343
			],
			"min":[
				-0.19380059838294983,
				-1.0242563486099243,
				-0.8054066896438599
			],
			"type":"VEC3"
		},
		{
			"bufferView":1,
			"componentType":5126,
			"count":32,
			"type":"VEC3"
		},
		{
			"bufferView":2,
			"componentType":5126,
			"count":32,
			"type":"VEC2"
		},
		{
			"bufferView":3,
			"componentType":5123,
			"count":78,
			"type":"SCALAR"
		},
		{
			"bufferView":4,
			"componentType":5126,
			"count":374,
			"max":[
				0.23054242134094238,
				1.048078179359436,
				0.7762849926948547
			],
			"min":[
				-0.23054242134094238,
				-1.048078179359436,
				-0.8475732207298279
			],
			"type":"VEC3"
		},
		{
			"bufferView":5,
			"componentType":5126,
			"count":374,
			"type":"VEC3"
		},
		{
			"bufferView":6,
			"componentType":5126,
			"count":374,
			"type":"VEC2"
		},
		{
			"bufferView":7,
			"componentType":5123,
			"count":720,
			"type":"SCALAR"
		},
		{
			"bufferView":8,
			"componentType":5126,
			"count":12,
			"max":[
				-0.23054242134094238,
				1.048078179359436,
				0.7762849926948547
			],
			"min":[
				-0.23054242134094238,
				-1.048078179359436,
				-0.7621942758560181
			],
			"type":"VEC3"
		},
		{
			"bufferView":9,
			"componentType":5126,
			"count":12,
			"type":"VEC3"
		},
		{
			"bufferView":10,
			"componentType":5126,
			"count":12,
			"type":"VEC2"
		},
		{
			"bufferView":11,
			"componentType":5123,
			"count":30,
			"type":"SCALAR"
		},
		{
			"bufferView":12,
			"componentType":5126,
			"count":2,
			"max":[
				1.25
			],
			"min":[
				0
			],
			"type":"SCALAR"
		},
		{
			"bufferView":13,
			"componentType":5126,
			"count":2,
			"type":"VEC3"
		},
		{
			"bufferView":14,
			"componentType":5126,
			"count":31,
			"max":[
				1.25
			],
			"min":[
				0
			],
			"type":"SCALAR"
		},
		{
			"bufferView":15,
			"componentType":5126,
			"count":31,
			"type":"VEC4"
		}
	],
	"bufferViews":[
		{
			"buffer":0,
			"byteLength":384,
			"byteOffset":0,
			"target":34962
		},
		{
			"buffer":0,
			"byteLength":384,
			"byteOffset":384,
			"target":34962
		},
		{
			"buffer":0,
			"byteLength":256,
			"byteOffset":768,
			"target":34962
		},
		{
			"buffer":0,
			"byteLength":156,
			"byteOffset":1024,
			"target":34963
		},
		{
			"buffer":0,
			"byteLength":4488,
			"byteOffset":1180,
			"target":34962
		},
		{
			"buffer":0,
			"byteLength":4488,
			"byteOffset":5668,
			"target":34962
		},
		{
			"buffer":0,
			"byteLength":2992,
			"byteOffset":10156,
			"target":34962
		},
		{
			"buffer":0,
			"byteLength":1440,
			"byteOffset":13148,
			"target":34963
		},
		{
			"buffer":0,
			"byteLength":144,
			"byteOffset":14588,
			"target":34962
		},
		{
			"buffer":0,
			"byteLength":144,
			"byteOffset":14732,
			"target":34962
		},
		{
			"buffer":0,
			"byteLength":96,
			"byteOffset":14876,
			"target":34962
		},
		{
			"buffer":0,
			"byteLength":60,
			"byteOffset":14972,
			"target":34963
		},
		{
			"buffer":0,
			"byteLength":8,
			"byteOffset":15032
		},
		{
			"buffer":0,
			"byteLength":24,
			"byteOffset":15040
		},
		{
			"buffer":0,
			"byteLength":124,
			"byteOffset":15064
		},
		{
			"buffer":0,
			"byteLength":496,
			"byteOffset":15188
		}
	],
	"samplers":[
		{
			"magFilter":9729,
			"minFilter":9987
		}
	],
	"buffers":[
		{
			"byteLength":15684,
			"uri":"NewBook.bin"
		}
	]
}
